<svg width="32.000000" height="32.000000" viewBox="0 0 32 32" fill="none" xmlns="http://www.w3.org/2000/svg" xmlns:xlink="http://www.w3.org/1999/xlink">
	<desc>
			Created with Pixso.
	</desc>
	<defs/>
	<g opacity="0.500647">
		<circle id="Oval" cx="16.000000" cy="16.000000" r="16.000000" fill="#10141E" fill-opacity="1.000000"/>
	</g>
	<path id="Path" d="M21.0103 9.08325C20.8828 9.02783 20.749 9 20.6094 9L11.0571 9Q10.9473 9 10.8418 9.02295L10.8418 9.02295Q10.7471 9.0437 10.6562 9.08325Q10.4785 9.1543 10.3438 9.27368Q10.2505 9.35645 10.1777 9.46265Q10.0894 9.59131 10.0449 9.7334Q10 9.87793 10 10.0364L10 21.9636C10 22.1733 10.0591 22.3645 10.1777 22.5374C10.2964 22.71 10.4556 22.8364 10.6562 22.9167Q10.7471 22.9563 10.8418 22.9771Q10.9473 23 11.0571 23Q11.2354 23 11.396 22.9473Q11.6221 22.873 11.814 22.6946L15.8335 18.7712L19.853 22.6946C20.0654 22.8921 20.3179 22.9907 20.6094 22.9907C20.7612 22.9907 20.895 22.9661 21.0103 22.9167C21.2109 22.8364 21.3706 22.71 21.4888 22.5374C21.6074 22.3645 21.6665 22.1733 21.6665 21.9636L21.6665 10.0364Q21.6665 9.87793 21.6216 9.7334Q21.5771 9.59131 21.4888 9.46265C21.3706 9.29004 21.2109 9.16357 21.0103 9.08325ZM20.1665 20.9048L20.1665 10.5L11.5 10.5L11.5 20.9048L15.8335 16.6753L20.1665 20.9048Z" fill="#FFFFFF" fill-opacity="1.000000" fill-rule="evenodd"/>
</svg>
