<svg width="20" height="24" viewBox="0 0 12 12" fill="none" xmlns="http://www.w3.org/2000/svg" xmlns:xlink="http://www.w3.org/1999/xlink">
	<desc>
			Created with Pixso.
	</desc>
	<defs/>
	<g opacity="0.750000">
		<path id="Shape" d="M1.82666 0L10.1733 0C10.6577 0 11.1226 0.192459 11.4648 0.535019C11.8076 0.877579 12 1.34221 12 1.82666L12 10.1733C12 10.6578 11.8076 11.1224 11.4648 11.465C11.1226 11.8076 10.6577 12 10.1733 12L1.82666 12C0.817871 12 0 11.1822 0 10.1733L0 1.82666C0 0.817825 0.817871 0 1.82666 0ZM2.3999 5.39999L1.2002 5.39999L1.2002 4.2L2.3999 4.2L2.3999 5.39999ZM1.2002 6.60001L2.3999 6.60001L2.3999 7.8L1.2002 7.8L1.2002 6.60001ZM10.7998 5.39999L9.6001 5.39999L9.6001 4.2L10.7998 4.2L10.7998 5.39999ZM9.6001 6.60001L10.7998 6.60001L10.7998 7.8L9.6001 7.8L9.6001 6.60001ZM10.7998 1.644L10.7998 2.39999L9.6001 2.39999L9.6001 1.2L10.356 1.2C10.4736 1.2 10.5869 1.24678 10.6699 1.33005C10.7534 1.41331 10.7998 1.52625 10.7998 1.644ZM1.64404 1.2L2.3999 1.2L2.3999 2.39999L1.2002 2.39999L1.2002 1.644C1.2002 1.52625 1.24658 1.41331 1.33008 1.33005C1.41309 1.24678 1.52637 1.2 1.64404 1.2L1.64404 1.2ZM1.2002 10.356L1.2002 9.60001L2.3999 9.60001L2.3999 10.8L1.64404 10.8C1.52637 10.8 1.41309 10.7532 1.33008 10.67C1.24658 10.5867 1.2002 10.4738 1.2002 10.356L1.2002 10.356ZM10.7998 10.356C10.7998 10.6012 10.6011 10.8 10.356 10.8L9.6001 10.8L9.6001 9.60001L10.7998 9.60001L10.7998 10.356Z" clip-rule="evenodd" fill="#FFFFFF" fill-opacity="1.000000" fill-rule="evenodd"/>
	</g>
</svg>
