<svg width="117.000000" height="48.000000" viewBox="0 0 117 48" fill="none" xmlns="http://www.w3.org/2000/svg" xmlns:xlink="http://www.w3.org/1999/xlink">
	<desc>
			Created with Pixso.
	</desc>
	<defs>
		<clipPath id="clip0_6533">
			<rect id="Group 3" width="117.000000" height="48.000000" fill="white" fill-opacity="0"/>
		</clipPath>
	</defs>
	<rect id="Group 3" width="117.000000" height="48.000000" fill="#FFFFFF" fill-opacity="0"/>
	<g clip-path="url(#clip0_6533)">
		<g opacity="0.250000">
			<rect id="Rectangle" rx="24.000000" width="117.000000" height="48.000000" fill="#FFFFFF" fill-opacity="1.000000"/>
		</g>
		<path id="Shape" d="M9 24C9 15.7125 15.7124 9 24 9C32.2876 9 39 15.7125 39 24C39 32.2875 32.2876 39 24 39C15.7124 39 9 32.2875 9 24ZM30 23.5L21 17L21 30L30 23.5Z" clip-rule="evenodd" fill="#FFFFFF" fill-opacity="1.000000" fill-rule="evenodd"/>
		<path id="Play" d="M69.9706 17.0405L69.9706 30L71.9482 30L71.9482 17.0405L69.9706 17.0405ZM59.3667 17.4009L59.3667 30L61.4365 30L61.4365 25.2495L64.0469 25.2495Q65.2161 25.2495 66.1482 24.7793Q66.1654 24.7706 66.1826 24.7617Q66.7412 24.4734 67.1615 24.0483Q67.4522 23.7543 67.6768 23.395Q67.7241 23.3189 67.7673 23.2406Q68.2261 22.4095 68.2261 21.3252Q68.2261 20.2164 67.7499 19.3781Q67.7146 19.316 67.6768 19.2554Q67.4406 18.8757 67.1315 18.5699Q66.7213 18.1643 66.1826 17.8887Q66.1654 17.8798 66.1482 17.8711Q65.2161 17.4009 64.0469 17.4009L59.3667 17.4009ZM61.4365 19.1982L61.4365 23.4478L63.9414 23.4478Q64.5874 23.4478 65.0796 23.1885Q65.3537 23.0429 65.5636 22.833Q65.7339 22.6628 65.8618 22.4502Q65.8725 22.4325 65.8828 22.4146Q66.1519 21.9474 66.1519 21.3252Q66.1519 20.6787 65.8653 20.2059Q65.8636 20.2031 65.8618 20.2002Q65.7233 19.9679 65.5351 19.7872Q65.3353 19.5954 65.0796 19.4619Q64.5874 19.1982 63.9414 19.1982L61.4365 19.1982ZM76.3355 29.9284Q77.0019 30.1802 77.7633 30.1802Q78.7017 30.1802 79.4462 29.8002Q79.4861 29.7798 79.5255 29.7583Q80.0168 29.4891 80.373 29.0972Q80.3911 29.0773 80.4088 29.0571L80.4088 30L82.3908 30L82.3908 21.3604L80.4088 21.3604L80.4088 22.3158Q80.344 22.2412 80.2747 22.171Q79.9456 21.8373 79.5168 21.6021Q79.4946 21.5898 79.4723 21.578Q78.7235 21.1802 77.7633 21.1802Q77.0213 21.1802 76.3695 21.4228Q75.9946 21.5624 75.6496 21.7822Q75.3 22.0049 75.0047 22.2848Q74.5015 22.7614 74.1554 23.4038Q74.105 23.497 74.0592 23.5924Q73.6061 24.5364 73.6061 25.6978Q73.6061 26.7652 73.9996 27.6596Q74.071 27.8219 74.1554 27.9785Q74.502 28.619 75.0061 29.0916Q75.3009 29.368 75.6496 29.5869Q75.9789 29.7937 76.3355 29.9284ZM88.5988 30.0879L86.9992 33.5991L84.802 33.5991L86.9714 29.1286L83.6858 21.3604L85.8654 21.3604L88.0781 26.9905L90.4182 21.3604L92.6154 21.3604L88.5988 30.0879ZM79.3274 28.0016Q78.7965 28.3081 78.0885 28.3081Q77.4568 28.3081 76.9568 28.0515Q76.8863 28.0154 76.8185 27.9741Q76.6315 27.8604 76.4715 27.7167Q76.1615 27.4382 75.9528 27.0469Q75.6408 26.4536 75.6408 25.6802Q75.6408 24.9067 75.9528 24.3135Q76.1699 23.9034 76.4966 23.6196Q76.6461 23.4897 76.8185 23.3862Q76.8863 23.345 76.9568 23.3088Q77.4568 23.0522 78.0885 23.0522Q78.788 23.0522 79.3178 23.352Q79.3472 23.3687 79.3761 23.3862Q79.5704 23.5028 79.7339 23.6529Q80.0327 23.9272 80.2287 24.3135Q80.5363 24.9067 80.5363 25.6802Q80.5363 26.5513 80.1489 27.1859Q80.0243 27.3901 79.8595 27.5698Q79.6204 27.8324 79.3274 28.0016Z" fill="#FFFFFF" fill-opacity="1.000000" fill-rule="evenodd"/>
	</g>
</svg>
